<svg xmlns="http://www.w3.org/2000/svg" id="root" version="1.1" viewBox="0 0 16 16"><path fill="#CACACA" stroke="#999" stroke-miterlimit="10" stroke-width=".5" d="M 7.3 14.7 l -6 -6 c -0.4 -0.4 -0.4 -1.1 0 -1.5 l 6 -6 c 0.4 -0.4 1.1 -0.4 1.5 0 l 6 6 c 0.4 0.4 0.4 1.1 0 1.5 l -6 6 c -0.5 0.4 -1.1 0.4 -1.5 0 z"/><path fill="#fff" d="M 4.5 9.2 c -0.4 0 -0.7 -0.3 -0.7 -0.7 v -1 c 0 -0.4 0.3 -0.7 0.7 -0.7 h 7 c 0.4 0 0.7 0.3 0.7 0.7 v 1 c 0 0.4 -0.3 0.7 -0.7 0.7 h -7 z"/><path fill="#999" d="M 11.5 7 c 0.3 0 0.5 0.2 0.5 0.5 v 1 c 0 0.3 -0.2 0.5 -0.5 0.5 h -7 c -0.3 0 -0.5 -0.2 -0.5 -0.5 v -1 c 0 -0.3 0.2 -0.5 0.5 -0.5 h 7 m 0 -0.3 h -7 c -0.5 0 -0.8 0.3 -0.8 0.8 v 1 c 0 0.5 0.3 0.8 0.8 0.8 h 7 c 0.5 0 0.8 -0.4 0.8 -0.8 v -1 c 0 -0.5 -0.3 -0.8 -0.8 -0.8 z"/></svg>