<svg xmlns="http://www.w3.org/2000/svg" id="root" version="1.1" viewBox="0 0 16 16"><style>.text{color:#4d4d4d}</style><linearGradient id="border-gradient-side" x1="0" x2="0" y1="0" y2="1"><stop offset="0%" stop-color="hsl(0, 0%, 43%)"/><stop offset="100%" stop-color="hsl(0, 0%, 16%)"/></linearGradient><linearGradient id="border-gradient-bottom" x1="0" x2="1" y1="0" y2="0"><stop offset="0%" stop-color="hsl(0, 0%, 20%)"/><stop offset="33%" stop-color="#000"/><stop offset="66%" stop-color="#000"/><stop offset="100%" stop-color="hsl(0, 0%, 39%)"/></linearGradient><linearGradient id="background-gradient" x1="0" x2="0" y1="0" y2="1"><stop offset="0%" stop-color="hsl(0, 0%, 93%)"/><stop offset="100%" stop-color="#fff"/></linearGradient><g opacity=".5"><rect width="12" height=".5" x="2" y="0" fill="hsl(0, 0%, 43%)"/><rect width="12" height=".5" x="2" y="15" fill="url(#border-gradient-bottom)"/><rect width=".5" height="15" x="2" y="0" fill="url(#border-gradient-side)"/><rect width=".5" height="15" x="13.5" y="0" fill="url(#border-gradient-side)"/></g><rect width="11" height="14.5" x="2.5" y=".5" fill="url(#background-gradient)"/><g class="text"><path fill="currentColor" d="M 5 3 L 7 3 L 7 7 L 6 7 L 6 4 L 5 4"/><rect width="2" height="3" x="8.5" y="3.5" fill="none" stroke="currentColor"/><rect width="2" height="3" x="5.5" y="9.5" fill="none" stroke="currentColor"/><path fill="currentColor" d="M 9 9 L 11 9 L 11 13 L 10 13 L 10 10 L 9 10"/></g></svg>